<mxfile host="app.diagrams.net" modified="2023-03-18T14:25:38.479Z" agent="5.0 (Windows NT 10.0; Win64; x64) AppleWebKit/537.36 (KHTML, like Gecko) Chrome/111.0.0.0 Safari/537.36" etag="oy-0dgIa1QRiykn0W3Pn" version="20.8.22" type="github">
  <diagram name="Page-1" id="Gea0iCd4BmjyHOqQIzp8">
    <mxGraphModel dx="2311" dy="795" grid="1" gridSize="10" guides="1" tooltips="1" connect="1" arrows="1" fold="1" page="1" pageScale="1" pageWidth="827" pageHeight="1169" math="0" shadow="0">
      <root>
        <mxCell id="0" />
        <mxCell id="1" parent="0" />
        <mxCell id="7LKU8TGoPf8nIpHQMbau-7" value="" style="edgeStyle=orthogonalEdgeStyle;rounded=0;orthogonalLoop=1;jettySize=auto;html=1;" parent="1" source="7LKU8TGoPf8nIpHQMbau-1" target="7LKU8TGoPf8nIpHQMbau-2" edge="1">
          <mxGeometry relative="1" as="geometry" />
        </mxCell>
        <mxCell id="7LKU8TGoPf8nIpHQMbau-1" value="Device&lt;br&gt;or&lt;br&gt;Sensor" style="rounded=0;whiteSpace=wrap;html=1;" parent="1" vertex="1">
          <mxGeometry x="40" y="230" width="70" height="90" as="geometry" />
        </mxCell>
        <mxCell id="7LKU8TGoPf8nIpHQMbau-9" value="" style="edgeStyle=orthogonalEdgeStyle;rounded=0;orthogonalLoop=1;jettySize=auto;html=1;" parent="1" source="7LKU8TGoPf8nIpHQMbau-2" target="7LKU8TGoPf8nIpHQMbau-8" edge="1">
          <mxGeometry relative="1" as="geometry" />
        </mxCell>
        <mxCell id="7LKU8TGoPf8nIpHQMbau-2" value="Hardware&lt;br&gt;Agent&lt;br&gt;Nano" style="rounded=0;whiteSpace=wrap;html=1;" parent="1" vertex="1">
          <mxGeometry x="180" y="230" width="70" height="90" as="geometry" />
        </mxCell>
        <mxCell id="7LKU8TGoPf8nIpHQMbau-5" style="edgeStyle=orthogonalEdgeStyle;rounded=0;orthogonalLoop=1;jettySize=auto;html=1;entryX=0.5;entryY=0;entryDx=0;entryDy=0;" parent="1" source="7LKU8TGoPf8nIpHQMbau-3" target="7LKU8TGoPf8nIpHQMbau-2" edge="1">
          <mxGeometry relative="1" as="geometry" />
        </mxCell>
        <mxCell id="7LKU8TGoPf8nIpHQMbau-23" value="" style="edgeStyle=orthogonalEdgeStyle;rounded=0;orthogonalLoop=1;jettySize=auto;html=1;" parent="1" source="7LKU8TGoPf8nIpHQMbau-3" edge="1">
          <mxGeometry relative="1" as="geometry">
            <mxPoint x="490" y="110" as="targetPoint" />
          </mxGeometry>
        </mxCell>
        <mxCell id="7LKU8TGoPf8nIpHQMbau-3" value="Agent&lt;br&gt;Management" style="rounded=0;whiteSpace=wrap;html=1;" parent="1" vertex="1">
          <mxGeometry x="230" y="70" width="80" height="80" as="geometry" />
        </mxCell>
        <mxCell id="7LKU8TGoPf8nIpHQMbau-6" value="" style="edgeStyle=orthogonalEdgeStyle;rounded=0;orthogonalLoop=1;jettySize=auto;html=1;" parent="1" source="7LKU8TGoPf8nIpHQMbau-4" target="7LKU8TGoPf8nIpHQMbau-2" edge="1">
          <mxGeometry relative="1" as="geometry" />
        </mxCell>
        <mxCell id="7LKU8TGoPf8nIpHQMbau-4" value="Agent&lt;br&gt;IAM" style="rounded=0;whiteSpace=wrap;html=1;" parent="1" vertex="1">
          <mxGeometry x="120" y="70" width="80" height="80" as="geometry" />
        </mxCell>
        <mxCell id="7LKU8TGoPf8nIpHQMbau-16" value="" style="edgeStyle=orthogonalEdgeStyle;rounded=0;orthogonalLoop=1;jettySize=auto;html=1;" parent="1" source="7LKU8TGoPf8nIpHQMbau-8" target="7LKU8TGoPf8nIpHQMbau-15" edge="1">
          <mxGeometry relative="1" as="geometry" />
        </mxCell>
        <mxCell id="7LKU8TGoPf8nIpHQMbau-8" value="Gateway&lt;br&gt;" style="rounded=0;whiteSpace=wrap;html=1;" parent="1" vertex="1">
          <mxGeometry x="310" y="230" width="70" height="90" as="geometry" />
        </mxCell>
        <mxCell id="7LKU8TGoPf8nIpHQMbau-10" value="token exchange" style="text;html=1;strokeColor=none;fillColor=none;align=center;verticalAlign=middle;whiteSpace=wrap;rounded=0;" parent="1" vertex="1">
          <mxGeometry x="280" y="340" width="60" height="30" as="geometry" />
        </mxCell>
        <mxCell id="7LKU8TGoPf8nIpHQMbau-12" value="IAM" style="rounded=0;whiteSpace=wrap;html=1;" parent="1" vertex="1">
          <mxGeometry x="310" y="390" width="70" height="90" as="geometry" />
        </mxCell>
        <mxCell id="7LKU8TGoPf8nIpHQMbau-14" value="" style="endArrow=classic;startArrow=classic;html=1;rounded=0;entryX=0.5;entryY=1;entryDx=0;entryDy=0;exitX=0.5;exitY=0;exitDx=0;exitDy=0;" parent="1" source="7LKU8TGoPf8nIpHQMbau-12" target="7LKU8TGoPf8nIpHQMbau-8" edge="1">
          <mxGeometry width="50" height="50" relative="1" as="geometry">
            <mxPoint x="410" y="370" as="sourcePoint" />
            <mxPoint x="460" y="320" as="targetPoint" />
          </mxGeometry>
        </mxCell>
        <mxCell id="7LKU8TGoPf8nIpHQMbau-25" value="" style="edgeStyle=orthogonalEdgeStyle;rounded=0;orthogonalLoop=1;jettySize=auto;html=1;" parent="1" source="7LKU8TGoPf8nIpHQMbau-15" target="7LKU8TGoPf8nIpHQMbau-19" edge="1">
          <mxGeometry relative="1" as="geometry" />
        </mxCell>
        <mxCell id="7LKU8TGoPf8nIpHQMbau-26" style="edgeStyle=orthogonalEdgeStyle;rounded=0;orthogonalLoop=1;jettySize=auto;html=1;entryX=0;entryY=0.5;entryDx=0;entryDy=0;" parent="1" source="7LKU8TGoPf8nIpHQMbau-15" target="7LKU8TGoPf8nIpHQMbau-18" edge="1">
          <mxGeometry relative="1" as="geometry" />
        </mxCell>
        <mxCell id="7LKU8TGoPf8nIpHQMbau-27" style="edgeStyle=orthogonalEdgeStyle;rounded=0;orthogonalLoop=1;jettySize=auto;html=1;entryX=0;entryY=0.5;entryDx=0;entryDy=0;" parent="1" source="7LKU8TGoPf8nIpHQMbau-15" target="7LKU8TGoPf8nIpHQMbau-17" edge="1">
          <mxGeometry relative="1" as="geometry" />
        </mxCell>
        <mxCell id="7LKU8TGoPf8nIpHQMbau-28" style="edgeStyle=orthogonalEdgeStyle;rounded=0;orthogonalLoop=1;jettySize=auto;html=1;entryX=0;entryY=0.5;entryDx=0;entryDy=0;" parent="1" source="7LKU8TGoPf8nIpHQMbau-15" target="7LKU8TGoPf8nIpHQMbau-20" edge="1">
          <mxGeometry relative="1" as="geometry" />
        </mxCell>
        <mxCell id="7LKU8TGoPf8nIpHQMbau-15" value="Exchange" style="rounded=0;whiteSpace=wrap;html=1;" parent="1" vertex="1">
          <mxGeometry x="430" y="230" width="70" height="90" as="geometry" />
        </mxCell>
        <mxCell id="7LKU8TGoPf8nIpHQMbau-17" value="FileParser" style="rounded=0;whiteSpace=wrap;html=1;" parent="1" vertex="1">
          <mxGeometry x="600" y="150" width="110" height="50" as="geometry" />
        </mxCell>
        <mxCell id="7LKU8TGoPf8nIpHQMbau-18" value="TimeSeriesParser" style="rounded=0;whiteSpace=wrap;html=1;" parent="1" vertex="1">
          <mxGeometry x="600" y="230" width="110" height="50" as="geometry" />
        </mxCell>
        <mxCell id="7LKU8TGoPf8nIpHQMbau-19" value="EventParser" style="rounded=0;whiteSpace=wrap;html=1;" parent="1" vertex="1">
          <mxGeometry x="600" y="300" width="110" height="50" as="geometry" />
        </mxCell>
        <mxCell id="7LKU8TGoPf8nIpHQMbau-20" value="Data Source&lt;br&gt;Configruation&lt;br&gt;Parser" style="rounded=0;whiteSpace=wrap;html=1;" parent="1" vertex="1">
          <mxGeometry x="600" y="370" width="110" height="50" as="geometry" />
        </mxCell>
        <mxCell id="7LKU8TGoPf8nIpHQMbau-24" style="edgeStyle=orthogonalEdgeStyle;rounded=0;orthogonalLoop=1;jettySize=auto;html=1;entryX=0.5;entryY=0;entryDx=0;entryDy=0;" parent="1" source="7LKU8TGoPf8nIpHQMbau-21" target="7LKU8TGoPf8nIpHQMbau-17" edge="1">
          <mxGeometry relative="1" as="geometry" />
        </mxCell>
        <mxCell id="7LKU8TGoPf8nIpHQMbau-21" value="&lt;font style=&quot;font-size: 14px;&quot;&gt;Datapoint&lt;br&gt;Mapper&lt;/font&gt;" style="rounded=0;whiteSpace=wrap;html=1;" parent="1" vertex="1">
          <mxGeometry x="490" y="65" width="70" height="90" as="geometry" />
        </mxCell>
        <mxCell id="7LKU8TGoPf8nIpHQMbau-37" value="" style="edgeStyle=orthogonalEdgeStyle;rounded=0;orthogonalLoop=1;jettySize=auto;html=1;" parent="1" source="7LKU8TGoPf8nIpHQMbau-29" target="7LKU8TGoPf8nIpHQMbau-31" edge="1">
          <mxGeometry relative="1" as="geometry" />
        </mxCell>
        <mxCell id="7LKU8TGoPf8nIpHQMbau-29" value="" style="shape=curlyBracket;whiteSpace=wrap;html=1;rounded=1;flipH=1;labelPosition=right;verticalLabelPosition=middle;align=left;verticalAlign=middle;size=0.5;" parent="1" vertex="1">
          <mxGeometry x="730" y="170" width="20" height="240" as="geometry" />
        </mxCell>
        <mxCell id="7LKU8TGoPf8nIpHQMbau-31" value="" style="rounded=0;whiteSpace=wrap;html=1;dashed=1;" parent="1" vertex="1">
          <mxGeometry x="850" y="154" width="180" height="270" as="geometry" />
        </mxCell>
        <mxCell id="7LKU8TGoPf8nIpHQMbau-32" value="Entity" style="rounded=0;whiteSpace=wrap;html=1;" parent="1" vertex="1">
          <mxGeometry x="887.5" y="180" width="105" height="40" as="geometry" />
        </mxCell>
        <mxCell id="7LKU8TGoPf8nIpHQMbau-34" value="Type" style="rounded=0;whiteSpace=wrap;html=1;" parent="1" vertex="1">
          <mxGeometry x="887.5" y="235" width="105" height="40" as="geometry" />
        </mxCell>
        <mxCell id="7LKU8TGoPf8nIpHQMbau-35" value="Asset" style="rounded=0;whiteSpace=wrap;html=1;" parent="1" vertex="1">
          <mxGeometry x="887.5" y="290" width="105" height="40" as="geometry" />
        </mxCell>
        <mxCell id="7LKU8TGoPf8nIpHQMbau-36" value="Table Store&lt;br&gt;Data" style="rounded=0;whiteSpace=wrap;html=1;" parent="1" vertex="1">
          <mxGeometry x="887.5" y="350" width="105" height="40" as="geometry" />
        </mxCell>
        <mxCell id="7LKU8TGoPf8nIpHQMbau-39" value="IOT" style="text;html=1;strokeColor=none;fillColor=none;align=center;verticalAlign=middle;whiteSpace=wrap;rounded=0;" parent="1" vertex="1">
          <mxGeometry x="840" y="154" width="60" height="30" as="geometry" />
        </mxCell>
        <mxCell id="7LKU8TGoPf8nIpHQMbau-56" style="edgeStyle=orthogonalEdgeStyle;rounded=0;orthogonalLoop=1;jettySize=auto;html=1;entryX=0.25;entryY=0;entryDx=0;entryDy=0;fontSize=14;" parent="1" source="7LKU8TGoPf8nIpHQMbau-40" target="7LKU8TGoPf8nIpHQMbau-39" edge="1">
          <mxGeometry relative="1" as="geometry" />
        </mxCell>
        <mxCell id="7LKU8TGoPf8nIpHQMbau-40" value="Core" style="rounded=0;whiteSpace=wrap;html=1;" parent="1" vertex="1">
          <mxGeometry x="730" y="40" width="110" height="50" as="geometry" />
        </mxCell>
        <mxCell id="7LKU8TGoPf8nIpHQMbau-59" style="edgeStyle=orthogonalEdgeStyle;rounded=0;orthogonalLoop=1;jettySize=auto;html=1;fontSize=14;" parent="1" source="7LKU8TGoPf8nIpHQMbau-41" edge="1">
          <mxGeometry relative="1" as="geometry">
            <mxPoint x="937.5" y="150" as="targetPoint" />
          </mxGeometry>
        </mxCell>
        <mxCell id="7LKU8TGoPf8nIpHQMbau-41" value="UTS" style="rounded=0;whiteSpace=wrap;html=1;" parent="1" vertex="1">
          <mxGeometry x="882.5" y="40" width="110" height="50" as="geometry" />
        </mxCell>
        <mxCell id="7LKU8TGoPf8nIpHQMbau-60" style="edgeStyle=orthogonalEdgeStyle;rounded=0;orthogonalLoop=1;jettySize=auto;html=1;entryX=0.95;entryY=-0.002;entryDx=0;entryDy=0;entryPerimeter=0;fontSize=14;" parent="1" source="7LKU8TGoPf8nIpHQMbau-42" target="7LKU8TGoPf8nIpHQMbau-31" edge="1">
          <mxGeometry relative="1" as="geometry" />
        </mxCell>
        <mxCell id="7LKU8TGoPf8nIpHQMbau-42" value="AssetMgt" style="rounded=0;whiteSpace=wrap;html=1;" parent="1" vertex="1">
          <mxGeometry x="1040" y="40" width="110" height="50" as="geometry" />
        </mxCell>
        <mxCell id="7LKU8TGoPf8nIpHQMbau-62" style="edgeStyle=orthogonalEdgeStyle;rounded=0;orthogonalLoop=1;jettySize=auto;html=1;entryX=1.008;entryY=0.033;entryDx=0;entryDy=0;entryPerimeter=0;fontSize=14;" parent="1" source="7LKU8TGoPf8nIpHQMbau-43" target="7LKU8TGoPf8nIpHQMbau-31" edge="1">
          <mxGeometry relative="1" as="geometry" />
        </mxCell>
        <mxCell id="7LKU8TGoPf8nIpHQMbau-43" value="EventMgt" style="rounded=0;whiteSpace=wrap;html=1;" parent="1" vertex="1">
          <mxGeometry x="1150" y="137" width="110" height="50" as="geometry" />
        </mxCell>
        <mxCell id="7LKU8TGoPf8nIpHQMbau-63" style="edgeStyle=orthogonalEdgeStyle;rounded=0;orthogonalLoop=1;jettySize=auto;html=1;entryX=1.013;entryY=0.339;entryDx=0;entryDy=0;entryPerimeter=0;fontSize=14;" parent="1" source="7LKU8TGoPf8nIpHQMbau-44" target="7LKU8TGoPf8nIpHQMbau-31" edge="1">
          <mxGeometry relative="1" as="geometry" />
        </mxCell>
        <mxCell id="7LKU8TGoPf8nIpHQMbau-44" value="Developer" style="rounded=0;whiteSpace=wrap;html=1;" parent="1" vertex="1">
          <mxGeometry x="1150" y="220" width="110" height="50" as="geometry" />
        </mxCell>
        <mxCell id="7LKU8TGoPf8nIpHQMbau-64" style="edgeStyle=orthogonalEdgeStyle;rounded=0;orthogonalLoop=1;jettySize=auto;html=1;entryX=1.013;entryY=0.636;entryDx=0;entryDy=0;entryPerimeter=0;fontSize=14;" parent="1" source="7LKU8TGoPf8nIpHQMbau-45" target="7LKU8TGoPf8nIpHQMbau-31" edge="1">
          <mxGeometry relative="1" as="geometry" />
        </mxCell>
        <mxCell id="7LKU8TGoPf8nIpHQMbau-45" value="CloudFoudry" style="rounded=0;whiteSpace=wrap;html=1;" parent="1" vertex="1">
          <mxGeometry x="1150" y="300" width="110" height="50" as="geometry" />
        </mxCell>
        <mxCell id="7LKU8TGoPf8nIpHQMbau-65" style="edgeStyle=orthogonalEdgeStyle;rounded=0;orthogonalLoop=1;jettySize=auto;html=1;entryX=1.002;entryY=0.929;entryDx=0;entryDy=0;entryPerimeter=0;fontSize=14;" parent="1" source="7LKU8TGoPf8nIpHQMbau-46" target="7LKU8TGoPf8nIpHQMbau-31" edge="1">
          <mxGeometry relative="1" as="geometry" />
        </mxCell>
        <mxCell id="7LKU8TGoPf8nIpHQMbau-46" value="FleetManager" style="rounded=0;whiteSpace=wrap;html=1;" parent="1" vertex="1">
          <mxGeometry x="1150" y="380" width="110" height="50" as="geometry" />
        </mxCell>
        <mxCell id="7LKU8TGoPf8nIpHQMbau-66" style="edgeStyle=orthogonalEdgeStyle;rounded=0;orthogonalLoop=1;jettySize=auto;html=1;entryX=0.934;entryY=1.016;entryDx=0;entryDy=0;entryPerimeter=0;fontSize=14;" parent="1" source="7LKU8TGoPf8nIpHQMbau-47" target="7LKU8TGoPf8nIpHQMbau-31" edge="1">
          <mxGeometry relative="1" as="geometry" />
        </mxCell>
        <mxCell id="7LKU8TGoPf8nIpHQMbau-47" value="OEEHub" style="rounded=0;whiteSpace=wrap;html=1;" parent="1" vertex="1">
          <mxGeometry x="1040" y="470" width="110" height="50" as="geometry" />
        </mxCell>
        <mxCell id="7LKU8TGoPf8nIpHQMbau-67" style="edgeStyle=orthogonalEdgeStyle;rounded=0;orthogonalLoop=1;jettySize=auto;html=1;entryX=0.5;entryY=1;entryDx=0;entryDy=0;fontSize=14;" parent="1" source="7LKU8TGoPf8nIpHQMbau-48" target="7LKU8TGoPf8nIpHQMbau-31" edge="1">
          <mxGeometry relative="1" as="geometry" />
        </mxCell>
        <mxCell id="7LKU8TGoPf8nIpHQMbau-48" value="Jupyter" style="rounded=0;whiteSpace=wrap;html=1;" parent="1" vertex="1">
          <mxGeometry x="885" y="470" width="110" height="50" as="geometry" />
        </mxCell>
        <mxCell id="7LKU8TGoPf8nIpHQMbau-68" style="edgeStyle=orthogonalEdgeStyle;rounded=0;orthogonalLoop=1;jettySize=auto;html=1;entryX=0.082;entryY=0.998;entryDx=0;entryDy=0;entryPerimeter=0;fontSize=14;" parent="1" source="7LKU8TGoPf8nIpHQMbau-49" target="7LKU8TGoPf8nIpHQMbau-31" edge="1">
          <mxGeometry relative="1" as="geometry" />
        </mxCell>
        <mxCell id="7LKU8TGoPf8nIpHQMbau-49" value="Advance &amp;amp; Analytics" style="rounded=0;whiteSpace=wrap;html=1;" parent="1" vertex="1">
          <mxGeometry x="730" y="470" width="110" height="50" as="geometry" />
        </mxCell>
        <mxCell id="7LKU8TGoPf8nIpHQMbau-50" value="Data Ingest" style="rounded=0;whiteSpace=wrap;html=1;" parent="1" vertex="1">
          <mxGeometry x="70" y="720" width="130" height="60" as="geometry" />
        </mxCell>
        <mxCell id="7LKU8TGoPf8nIpHQMbau-51" value="Data save" style="rounded=0;whiteSpace=wrap;html=1;" parent="1" vertex="1">
          <mxGeometry x="70" y="640" width="130" height="60" as="geometry" />
        </mxCell>
        <mxCell id="7LKU8TGoPf8nIpHQMbau-52" value="Data consume" style="rounded=0;whiteSpace=wrap;html=1;" parent="1" vertex="1">
          <mxGeometry x="70" y="560" width="130" height="60" as="geometry" />
        </mxCell>
        <mxCell id="yH-KIC_llfYan9y_Q7ZD-28" value="" style="edgeStyle=orthogonalEdgeStyle;rounded=0;orthogonalLoop=1;jettySize=auto;html=1;fontSize=18;" edge="1" parent="1" source="yH-KIC_llfYan9y_Q7ZD-1" target="yH-KIC_llfYan9y_Q7ZD-3">
          <mxGeometry relative="1" as="geometry" />
        </mxCell>
        <mxCell id="yH-KIC_llfYan9y_Q7ZD-32" value="" style="edgeStyle=orthogonalEdgeStyle;rounded=0;orthogonalLoop=1;jettySize=auto;html=1;fontSize=18;" edge="1" parent="1">
          <mxGeometry relative="1" as="geometry">
            <mxPoint x="337" y="1160" as="sourcePoint" />
            <mxPoint x="337" y="1220" as="targetPoint" />
          </mxGeometry>
        </mxCell>
        <mxCell id="yH-KIC_llfYan9y_Q7ZD-1" value="&lt;font style=&quot;font-size: 18px;&quot;&gt;&lt;font style=&quot;&quot;&gt;OncePer&lt;br&gt;Req&lt;/font&gt;uestFilter&lt;/font&gt;" style="rounded=0;whiteSpace=wrap;html=1;fontSize=14;" vertex="1" parent="1">
          <mxGeometry x="250" y="950" width="130" height="210" as="geometry" />
        </mxCell>
        <mxCell id="yH-KIC_llfYan9y_Q7ZD-2" style="edgeStyle=orthogonalEdgeStyle;rounded=0;orthogonalLoop=1;jettySize=auto;html=1;exitX=0.5;exitY=1;exitDx=0;exitDy=0;fontSize=18;" edge="1" parent="1" source="yH-KIC_llfYan9y_Q7ZD-1" target="yH-KIC_llfYan9y_Q7ZD-1">
          <mxGeometry relative="1" as="geometry" />
        </mxCell>
        <mxCell id="yH-KIC_llfYan9y_Q7ZD-29" value="" style="edgeStyle=orthogonalEdgeStyle;rounded=0;orthogonalLoop=1;jettySize=auto;html=1;fontSize=18;" edge="1" parent="1" source="yH-KIC_llfYan9y_Q7ZD-3" target="yH-KIC_llfYan9y_Q7ZD-4">
          <mxGeometry relative="1" as="geometry" />
        </mxCell>
        <mxCell id="yH-KIC_llfYan9y_Q7ZD-36" value="" style="edgeStyle=orthogonalEdgeStyle;rounded=0;orthogonalLoop=1;jettySize=auto;html=1;fontSize=18;" edge="1" parent="1">
          <mxGeometry relative="1" as="geometry">
            <mxPoint x="517" y="1160" as="sourcePoint" />
            <mxPoint x="517" y="1220" as="targetPoint" />
          </mxGeometry>
        </mxCell>
        <mxCell id="yH-KIC_llfYan9y_Q7ZD-3" value="&lt;span style=&quot;font-size: 18px;&quot;&gt;Spring Security OAuth2 Client&lt;/span&gt;" style="rounded=0;whiteSpace=wrap;html=1;fontSize=14;" vertex="1" parent="1">
          <mxGeometry x="430" y="950" width="130" height="210" as="geometry" />
        </mxCell>
        <mxCell id="yH-KIC_llfYan9y_Q7ZD-24" value="" style="edgeStyle=orthogonalEdgeStyle;rounded=0;orthogonalLoop=1;jettySize=auto;html=1;fontSize=18;" edge="1" parent="1">
          <mxGeometry relative="1" as="geometry">
            <mxPoint x="671" y="1160" as="sourcePoint" />
            <mxPoint x="671" y="1220" as="targetPoint" />
          </mxGeometry>
        </mxCell>
        <mxCell id="yH-KIC_llfYan9y_Q7ZD-30" value="" style="edgeStyle=orthogonalEdgeStyle;rounded=0;orthogonalLoop=1;jettySize=auto;html=1;fontSize=18;" edge="1" parent="1" source="yH-KIC_llfYan9y_Q7ZD-4" target="yH-KIC_llfYan9y_Q7ZD-5">
          <mxGeometry relative="1" as="geometry" />
        </mxCell>
        <mxCell id="yH-KIC_llfYan9y_Q7ZD-4" value="&lt;span style=&quot;font-size: 18px;&quot;&gt;Zuul Pre Filter&lt;/span&gt;" style="rounded=0;whiteSpace=wrap;html=1;fontSize=14;" vertex="1" parent="1">
          <mxGeometry x="600" y="950" width="130" height="210" as="geometry" />
        </mxCell>
        <mxCell id="yH-KIC_llfYan9y_Q7ZD-16" style="edgeStyle=orthogonalEdgeStyle;rounded=0;orthogonalLoop=1;jettySize=auto;html=1;fontSize=18;entryX=0;entryY=0.5;entryDx=0;entryDy=0;" edge="1" parent="1" source="yH-KIC_llfYan9y_Q7ZD-5" target="yH-KIC_llfYan9y_Q7ZD-15">
          <mxGeometry relative="1" as="geometry">
            <mxPoint x="1030" y="1000" as="targetPoint" />
            <Array as="points">
              <mxPoint x="940" y="1055" />
              <mxPoint x="940" y="990" />
            </Array>
          </mxGeometry>
        </mxCell>
        <mxCell id="yH-KIC_llfYan9y_Q7ZD-17" style="edgeStyle=orthogonalEdgeStyle;rounded=0;orthogonalLoop=1;jettySize=auto;html=1;entryX=0;entryY=0.5;entryDx=0;entryDy=0;fontSize=18;" edge="1" parent="1" source="yH-KIC_llfYan9y_Q7ZD-5" target="yH-KIC_llfYan9y_Q7ZD-13">
          <mxGeometry relative="1" as="geometry" />
        </mxCell>
        <mxCell id="yH-KIC_llfYan9y_Q7ZD-5" value="&lt;span style=&quot;font-size: 18px;&quot;&gt;Zuul Route Filter&lt;/span&gt;" style="rounded=0;whiteSpace=wrap;html=1;fontSize=14;" vertex="1" parent="1">
          <mxGeometry x="770" y="950" width="130" height="210" as="geometry" />
        </mxCell>
        <mxCell id="yH-KIC_llfYan9y_Q7ZD-21" value="" style="edgeStyle=orthogonalEdgeStyle;rounded=0;orthogonalLoop=1;jettySize=auto;html=1;fontSize=18;" edge="1" parent="1" source="yH-KIC_llfYan9y_Q7ZD-6" target="yH-KIC_llfYan9y_Q7ZD-19">
          <mxGeometry relative="1" as="geometry" />
        </mxCell>
        <mxCell id="yH-KIC_llfYan9y_Q7ZD-6" value="&lt;span style=&quot;font-size: 18px;&quot;&gt;Zuul Post Filter&lt;/span&gt;" style="rounded=0;whiteSpace=wrap;html=1;fontSize=14;" vertex="1" parent="1">
          <mxGeometry x="770" y="820" width="130" height="120" as="geometry" />
        </mxCell>
        <mxCell id="yH-KIC_llfYan9y_Q7ZD-37" value="" style="edgeStyle=orthogonalEdgeStyle;rounded=0;orthogonalLoop=1;jettySize=auto;html=1;fontSize=18;" edge="1" parent="1">
          <mxGeometry relative="1" as="geometry">
            <mxPoint x="515" y="1330" as="sourcePoint" />
            <mxPoint x="515" y="1380" as="targetPoint" />
          </mxGeometry>
        </mxCell>
        <mxCell id="yH-KIC_llfYan9y_Q7ZD-39" value="" style="edgeStyle=orthogonalEdgeStyle;rounded=0;orthogonalLoop=1;jettySize=auto;html=1;fontSize=18;" edge="1" parent="1">
          <mxGeometry relative="1" as="geometry">
            <mxPoint x="473" y="1220" as="sourcePoint" />
            <mxPoint x="473" y="1160" as="targetPoint" />
          </mxGeometry>
        </mxCell>
        <mxCell id="yH-KIC_llfYan9y_Q7ZD-7" value="&lt;span style=&quot;font-size: 18px;&quot;&gt;IAM&lt;/span&gt;" style="rounded=0;whiteSpace=wrap;html=1;fontSize=14;" vertex="1" parent="1">
          <mxGeometry x="430" y="1220" width="130" height="110" as="geometry" />
        </mxCell>
        <mxCell id="yH-KIC_llfYan9y_Q7ZD-38" value="" style="edgeStyle=orthogonalEdgeStyle;rounded=0;orthogonalLoop=1;jettySize=auto;html=1;fontSize=18;" edge="1" parent="1">
          <mxGeometry relative="1" as="geometry">
            <mxPoint x="472" y="1380" as="sourcePoint" />
            <mxPoint x="472" y="1330" as="targetPoint" />
          </mxGeometry>
        </mxCell>
        <mxCell id="yH-KIC_llfYan9y_Q7ZD-8" value="&lt;span style=&quot;font-size: 18px;&quot;&gt;IDP&lt;/span&gt;" style="rounded=0;whiteSpace=wrap;html=1;fontSize=14;" vertex="1" parent="1">
          <mxGeometry x="430" y="1380" width="130" height="110" as="geometry" />
        </mxCell>
        <mxCell id="yH-KIC_llfYan9y_Q7ZD-34" style="edgeStyle=orthogonalEdgeStyle;rounded=0;orthogonalLoop=1;jettySize=auto;html=1;entryX=0.165;entryY=1.021;entryDx=0;entryDy=0;entryPerimeter=0;fontSize=18;" edge="1" parent="1">
          <mxGeometry relative="1" as="geometry">
            <mxPoint x="293.0344827586207" y="1380" as="sourcePoint" />
            <mxPoint x="293.44999999999993" y="1332.31" as="targetPoint" />
            <Array as="points">
              <mxPoint x="293" y="1370" />
              <mxPoint x="293" y="1370" />
            </Array>
          </mxGeometry>
        </mxCell>
        <mxCell id="yH-KIC_llfYan9y_Q7ZD-9" value="&lt;span style=&quot;font-size: 18px;&quot;&gt;Gateway Registry&lt;/span&gt;" style="rounded=0;whiteSpace=wrap;html=1;fontSize=14;" vertex="1" parent="1">
          <mxGeometry x="250" y="1380" width="130" height="110" as="geometry" />
        </mxCell>
        <mxCell id="yH-KIC_llfYan9y_Q7ZD-31" value="" style="edgeStyle=orthogonalEdgeStyle;rounded=0;orthogonalLoop=1;jettySize=auto;html=1;fontSize=18;" edge="1" parent="1">
          <mxGeometry relative="1" as="geometry">
            <mxPoint x="295" y="1220" as="sourcePoint" />
            <mxPoint x="295" y="1160" as="targetPoint" />
            <Array as="points">
              <mxPoint x="295" y="1180" />
              <mxPoint x="295" y="1180" />
            </Array>
          </mxGeometry>
        </mxCell>
        <mxCell id="yH-KIC_llfYan9y_Q7ZD-33" value="" style="edgeStyle=orthogonalEdgeStyle;rounded=0;orthogonalLoop=1;jettySize=auto;html=1;fontSize=18;" edge="1" parent="1">
          <mxGeometry relative="1" as="geometry">
            <mxPoint x="335" y="1330" as="sourcePoint" />
            <mxPoint x="335" y="1380" as="targetPoint" />
          </mxGeometry>
        </mxCell>
        <mxCell id="yH-KIC_llfYan9y_Q7ZD-10" value="&lt;span style=&quot;font-size: 18px;&quot;&gt;Encache Redis&lt;/span&gt;" style="rounded=0;whiteSpace=wrap;html=1;fontSize=14;" vertex="1" parent="1">
          <mxGeometry x="250" y="1220" width="130" height="110" as="geometry" />
        </mxCell>
        <mxCell id="yH-KIC_llfYan9y_Q7ZD-40" value="" style="edgeStyle=orthogonalEdgeStyle;rounded=0;orthogonalLoop=1;jettySize=auto;html=1;fontSize=18;" edge="1" parent="1">
          <mxGeometry relative="1" as="geometry">
            <mxPoint x="653" y="1220" as="sourcePoint" />
            <mxPoint x="653" y="1160" as="targetPoint" />
          </mxGeometry>
        </mxCell>
        <mxCell id="yH-KIC_llfYan9y_Q7ZD-12" value="&lt;span style=&quot;font-size: 18px;&quot;&gt;Token Exchange&lt;/span&gt;" style="rounded=0;whiteSpace=wrap;html=1;fontSize=14;" vertex="1" parent="1">
          <mxGeometry x="600" y="1220" width="130" height="110" as="geometry" />
        </mxCell>
        <mxCell id="yH-KIC_llfYan9y_Q7ZD-18" value="" style="edgeStyle=orthogonalEdgeStyle;rounded=0;orthogonalLoop=1;jettySize=auto;html=1;fontSize=18;" edge="1" parent="1" source="yH-KIC_llfYan9y_Q7ZD-13" target="yH-KIC_llfYan9y_Q7ZD-14">
          <mxGeometry relative="1" as="geometry" />
        </mxCell>
        <mxCell id="yH-KIC_llfYan9y_Q7ZD-47" value="" style="edgeStyle=orthogonalEdgeStyle;rounded=0;orthogonalLoop=1;jettySize=auto;html=1;fontSize=18;" edge="1" parent="1" source="yH-KIC_llfYan9y_Q7ZD-13" target="yH-KIC_llfYan9y_Q7ZD-44">
          <mxGeometry relative="1" as="geometry" />
        </mxCell>
        <mxCell id="yH-KIC_llfYan9y_Q7ZD-13" value="&lt;span style=&quot;font-size: 18px;&quot;&gt;Kong gateway proxy&lt;/span&gt;" style="rounded=0;whiteSpace=wrap;html=1;fontSize=14;" vertex="1" parent="1">
          <mxGeometry x="980" y="1060" width="130" height="100" as="geometry" />
        </mxCell>
        <mxCell id="yH-KIC_llfYan9y_Q7ZD-14" value="&lt;span style=&quot;font-size: 18px;&quot;&gt;API Service&lt;/span&gt;" style="rounded=0;whiteSpace=wrap;html=1;fontSize=14;" vertex="1" parent="1">
          <mxGeometry x="1210" y="1060" width="130" height="100" as="geometry" />
        </mxCell>
        <mxCell id="yH-KIC_llfYan9y_Q7ZD-15" value="&lt;span style=&quot;font-size: 18px;&quot;&gt;Web Service&lt;/span&gt;" style="rounded=0;whiteSpace=wrap;html=1;fontSize=14;" vertex="1" parent="1">
          <mxGeometry x="1210" y="940" width="130" height="100" as="geometry" />
        </mxCell>
        <mxCell id="yH-KIC_llfYan9y_Q7ZD-19" value="&lt;span style=&quot;font-size: 18px;&quot;&gt;UTS&lt;/span&gt;" style="rounded=0;whiteSpace=wrap;html=1;fontSize=14;" vertex="1" parent="1">
          <mxGeometry x="570" y="850" width="130" height="60" as="geometry" />
        </mxCell>
        <mxCell id="yH-KIC_llfYan9y_Q7ZD-22" value="" style="shape=flexArrow;endArrow=classic;html=1;rounded=0;fontSize=18;entryX=1;entryY=0.5;entryDx=0;entryDy=0;" edge="1" parent="1" target="yH-KIC_llfYan9y_Q7ZD-6">
          <mxGeometry width="50" height="50" relative="1" as="geometry">
            <mxPoint x="1020" y="880" as="sourcePoint" />
            <mxPoint x="970" y="840" as="targetPoint" />
          </mxGeometry>
        </mxCell>
        <mxCell id="yH-KIC_llfYan9y_Q7ZD-23" value="Response" style="text;html=1;strokeColor=none;fillColor=none;align=center;verticalAlign=middle;whiteSpace=wrap;rounded=0;fontSize=18;" vertex="1" parent="1">
          <mxGeometry x="935" y="840" width="60" height="30" as="geometry" />
        </mxCell>
        <mxCell id="yH-KIC_llfYan9y_Q7ZD-25" value="" style="shape=flexArrow;endArrow=classic;html=1;rounded=0;fontSize=18;entryX=0.007;entryY=0.438;entryDx=0;entryDy=0;entryPerimeter=0;" edge="1" parent="1">
          <mxGeometry width="50" height="50" relative="1" as="geometry">
            <mxPoint x="110" y="1047" as="sourcePoint" />
            <mxPoint x="250.91000000000008" y="1046.98" as="targetPoint" />
          </mxGeometry>
        </mxCell>
        <mxCell id="yH-KIC_llfYan9y_Q7ZD-26" value="Request" style="text;html=1;strokeColor=none;fillColor=none;align=center;verticalAlign=middle;whiteSpace=wrap;rounded=0;fontSize=18;" vertex="1" parent="1">
          <mxGeometry x="150" y="1010" width="60" height="30" as="geometry" />
        </mxCell>
        <mxCell id="yH-KIC_llfYan9y_Q7ZD-41" value="Installation&lt;br&gt;EndpointStaus" style="text;html=1;strokeColor=none;fillColor=none;align=center;verticalAlign=middle;whiteSpace=wrap;rounded=0;fontSize=18;" vertex="1" parent="1">
          <mxGeometry x="200" y="1180" width="60" height="30" as="geometry" />
        </mxCell>
        <mxCell id="yH-KIC_llfYan9y_Q7ZD-43" value="token" style="text;html=1;strokeColor=none;fillColor=none;align=center;verticalAlign=middle;whiteSpace=wrap;rounded=0;fontSize=18;" vertex="1" parent="1">
          <mxGeometry x="410" y="1180" width="60" height="30" as="geometry" />
        </mxCell>
        <mxCell id="yH-KIC_llfYan9y_Q7ZD-44" value="&lt;span style=&quot;font-size: 18px;&quot;&gt;PostgresSQL&lt;/span&gt;" style="rounded=0;whiteSpace=wrap;html=1;fontSize=14;" vertex="1" parent="1">
          <mxGeometry x="980" y="1220" width="130" height="100" as="geometry" />
        </mxCell>
        <mxCell id="yH-KIC_llfYan9y_Q7ZD-46" value="" style="edgeStyle=orthogonalEdgeStyle;rounded=0;orthogonalLoop=1;jettySize=auto;html=1;fontSize=18;" edge="1" parent="1" source="yH-KIC_llfYan9y_Q7ZD-45" target="yH-KIC_llfYan9y_Q7ZD-44">
          <mxGeometry relative="1" as="geometry" />
        </mxCell>
        <mxCell id="yH-KIC_llfYan9y_Q7ZD-45" value="&lt;span style=&quot;font-size: 18px;&quot;&gt;Kong gateway Admin&lt;/span&gt;" style="rounded=0;whiteSpace=wrap;html=1;fontSize=14;" vertex="1" parent="1">
          <mxGeometry x="980" y="1370" width="130" height="100" as="geometry" />
        </mxCell>
        <mxCell id="yH-KIC_llfYan9y_Q7ZD-50" value="" style="edgeStyle=orthogonalEdgeStyle;rounded=0;orthogonalLoop=1;jettySize=auto;html=1;fontSize=18;" edge="1" parent="1" source="yH-KIC_llfYan9y_Q7ZD-48" target="yH-KIC_llfYan9y_Q7ZD-49">
          <mxGeometry relative="1" as="geometry" />
        </mxCell>
        <mxCell id="yH-KIC_llfYan9y_Q7ZD-48" value="&lt;span style=&quot;font-size: 18px;&quot;&gt;Mindgate&lt;/span&gt;" style="rounded=0;whiteSpace=wrap;html=1;fontSize=14;" vertex="1" parent="1">
          <mxGeometry x="190" y="1690" width="100" height="150" as="geometry" />
        </mxCell>
        <mxCell id="yH-KIC_llfYan9y_Q7ZD-52" value="" style="edgeStyle=orthogonalEdgeStyle;rounded=0;orthogonalLoop=1;jettySize=auto;html=1;fontSize=18;" edge="1" parent="1" source="yH-KIC_llfYan9y_Q7ZD-49" target="yH-KIC_llfYan9y_Q7ZD-51">
          <mxGeometry relative="1" as="geometry" />
        </mxCell>
        <mxCell id="yH-KIC_llfYan9y_Q7ZD-49" value="&lt;span style=&quot;font-size: 18px;&quot;&gt;UtsAgent&lt;/span&gt;" style="rounded=0;whiteSpace=wrap;html=1;fontSize=14;" vertex="1" parent="1">
          <mxGeometry x="364" y="1690" width="100" height="150" as="geometry" />
        </mxCell>
        <mxCell id="yH-KIC_llfYan9y_Q7ZD-61" value="" style="edgeStyle=orthogonalEdgeStyle;rounded=0;orthogonalLoop=1;jettySize=auto;html=1;fontSize=18;" edge="1" parent="1" source="yH-KIC_llfYan9y_Q7ZD-51" target="yH-KIC_llfYan9y_Q7ZD-53">
          <mxGeometry relative="1" as="geometry" />
        </mxCell>
        <mxCell id="yH-KIC_llfYan9y_Q7ZD-51" value="&lt;span style=&quot;font-size: 18px;&quot;&gt;LogStore&lt;br&gt;NB/SB&lt;br&gt;&lt;/span&gt;" style="rounded=0;whiteSpace=wrap;html=1;fontSize=14;" vertex="1" parent="1">
          <mxGeometry x="530" y="1690" width="100" height="150" as="geometry" />
        </mxCell>
        <mxCell id="yH-KIC_llfYan9y_Q7ZD-62" value="" style="edgeStyle=orthogonalEdgeStyle;rounded=0;orthogonalLoop=1;jettySize=auto;html=1;fontSize=18;" edge="1" parent="1" source="yH-KIC_llfYan9y_Q7ZD-53" target="yH-KIC_llfYan9y_Q7ZD-54">
          <mxGeometry relative="1" as="geometry" />
        </mxCell>
        <mxCell id="yH-KIC_llfYan9y_Q7ZD-53" value="&lt;span style=&quot;font-size: 18px;&quot;&gt;OSS&lt;br&gt;nb-bucket&lt;br&gt;&lt;/span&gt;" style="rounded=0;whiteSpace=wrap;html=1;fontSize=14;" vertex="1" parent="1">
          <mxGeometry x="700" y="1690" width="100" height="150" as="geometry" />
        </mxCell>
        <mxCell id="yH-KIC_llfYan9y_Q7ZD-63" value="" style="edgeStyle=orthogonalEdgeStyle;rounded=0;orthogonalLoop=1;jettySize=auto;html=1;fontSize=18;" edge="1" parent="1" source="yH-KIC_llfYan9y_Q7ZD-54" target="yH-KIC_llfYan9y_Q7ZD-56">
          <mxGeometry relative="1" as="geometry" />
        </mxCell>
        <mxCell id="yH-KIC_llfYan9y_Q7ZD-54" value="&lt;span style=&quot;font-size: 18px;&quot;&gt;Decompres&lt;br&gt;&lt;/span&gt;" style="rounded=0;whiteSpace=wrap;html=1;fontSize=14;" vertex="1" parent="1">
          <mxGeometry x="870" y="1690" width="100" height="150" as="geometry" />
        </mxCell>
        <mxCell id="yH-KIC_llfYan9y_Q7ZD-64" value="" style="edgeStyle=orthogonalEdgeStyle;rounded=0;orthogonalLoop=1;jettySize=auto;html=1;fontSize=18;" edge="1" parent="1" source="yH-KIC_llfYan9y_Q7ZD-56" target="yH-KIC_llfYan9y_Q7ZD-57">
          <mxGeometry relative="1" as="geometry" />
        </mxCell>
        <mxCell id="yH-KIC_llfYan9y_Q7ZD-56" value="&lt;span style=&quot;font-size: 18px;&quot;&gt;OSS&lt;br&gt;usage-bucket&lt;br&gt;&lt;/span&gt;" style="rounded=0;whiteSpace=wrap;html=1;fontSize=14;" vertex="1" parent="1">
          <mxGeometry x="870" y="2147" width="100" height="163" as="geometry" />
        </mxCell>
        <mxCell id="yH-KIC_llfYan9y_Q7ZD-65" value="" style="edgeStyle=orthogonalEdgeStyle;rounded=0;orthogonalLoop=1;jettySize=auto;html=1;fontSize=18;" edge="1" parent="1" source="yH-KIC_llfYan9y_Q7ZD-57" target="yH-KIC_llfYan9y_Q7ZD-58">
          <mxGeometry relative="1" as="geometry" />
        </mxCell>
        <mxCell id="yH-KIC_llfYan9y_Q7ZD-69" value="" style="edgeStyle=orthogonalEdgeStyle;rounded=0;orthogonalLoop=1;jettySize=auto;html=1;fontSize=18;" edge="1" parent="1" source="yH-KIC_llfYan9y_Q7ZD-57" target="yH-KIC_llfYan9y_Q7ZD-68">
          <mxGeometry relative="1" as="geometry">
            <Array as="points">
              <mxPoint x="770" y="2350" />
              <mxPoint x="770" y="2350" />
            </Array>
          </mxGeometry>
        </mxCell>
        <mxCell id="yH-KIC_llfYan9y_Q7ZD-84" style="edgeStyle=orthogonalEdgeStyle;rounded=0;orthogonalLoop=1;jettySize=auto;html=1;entryX=0;entryY=0.5;entryDx=0;entryDy=0;fontSize=18;" edge="1" parent="1" source="yH-KIC_llfYan9y_Q7ZD-57" target="yH-KIC_llfYan9y_Q7ZD-83">
          <mxGeometry relative="1" as="geometry">
            <Array as="points">
              <mxPoint x="835" y="2280" />
              <mxPoint x="835" y="2465" />
            </Array>
          </mxGeometry>
        </mxCell>
        <mxCell id="yH-KIC_llfYan9y_Q7ZD-57" value="&lt;span style=&quot;font-size: 18px;&quot;&gt;Master&lt;br&gt;Scheduler&lt;br&gt;&lt;/span&gt;" style="rounded=0;whiteSpace=wrap;html=1;fontSize=14;" vertex="1" parent="1">
          <mxGeometry x="700" y="2148" width="100" height="162" as="geometry" />
        </mxCell>
        <mxCell id="yH-KIC_llfYan9y_Q7ZD-66" value="" style="edgeStyle=orthogonalEdgeStyle;rounded=0;orthogonalLoop=1;jettySize=auto;html=1;fontSize=18;" edge="1" parent="1" source="yH-KIC_llfYan9y_Q7ZD-58" target="yH-KIC_llfYan9y_Q7ZD-59">
          <mxGeometry relative="1" as="geometry" />
        </mxCell>
        <mxCell id="yH-KIC_llfYan9y_Q7ZD-58" value="&lt;span style=&quot;font-size: 18px;&quot;&gt;RDS&lt;br&gt;MySQL&lt;br&gt;&lt;/span&gt;" style="rounded=0;whiteSpace=wrap;html=1;fontSize=14;" vertex="1" parent="1">
          <mxGeometry x="540" y="2148" width="100" height="162" as="geometry" />
        </mxCell>
        <mxCell id="yH-KIC_llfYan9y_Q7ZD-67" value="" style="edgeStyle=orthogonalEdgeStyle;rounded=0;orthogonalLoop=1;jettySize=auto;html=1;fontSize=18;" edge="1" parent="1" source="yH-KIC_llfYan9y_Q7ZD-59" target="yH-KIC_llfYan9y_Q7ZD-60">
          <mxGeometry relative="1" as="geometry" />
        </mxCell>
        <mxCell id="yH-KIC_llfYan9y_Q7ZD-78" style="edgeStyle=orthogonalEdgeStyle;rounded=0;orthogonalLoop=1;jettySize=auto;html=1;entryX=0.5;entryY=1;entryDx=0;entryDy=0;fontSize=18;" edge="1" parent="1" source="yH-KIC_llfYan9y_Q7ZD-59" target="yH-KIC_llfYan9y_Q7ZD-74">
          <mxGeometry relative="1" as="geometry" />
        </mxCell>
        <mxCell id="yH-KIC_llfYan9y_Q7ZD-59" value="&lt;span style=&quot;font-size: 18px;&quot;&gt;Report&lt;br&gt;Service&lt;br&gt;&lt;/span&gt;" style="rounded=0;whiteSpace=wrap;html=1;fontSize=14;" vertex="1" parent="1">
          <mxGeometry x="364" y="2147" width="100" height="163" as="geometry" />
        </mxCell>
        <mxCell id="yH-KIC_llfYan9y_Q7ZD-60" value="&lt;span style=&quot;font-size: 18px;&quot;&gt;UI&lt;br&gt;&lt;/span&gt;" style="rounded=0;whiteSpace=wrap;html=1;fontSize=14;" vertex="1" parent="1">
          <mxGeometry x="190" y="2146" width="100" height="164" as="geometry" />
        </mxCell>
        <mxCell id="yH-KIC_llfYan9y_Q7ZD-70" value="" style="edgeStyle=orthogonalEdgeStyle;rounded=0;orthogonalLoop=1;jettySize=auto;html=1;fontSize=18;" edge="1" parent="1" source="yH-KIC_llfYan9y_Q7ZD-68" target="yH-KIC_llfYan9y_Q7ZD-57">
          <mxGeometry relative="1" as="geometry">
            <Array as="points">
              <mxPoint x="730" y="2360" />
              <mxPoint x="730" y="2360" />
            </Array>
          </mxGeometry>
        </mxCell>
        <mxCell id="yH-KIC_llfYan9y_Q7ZD-68" value="&lt;span style=&quot;font-size: 18px;&quot;&gt;Other&lt;br&gt;Services&lt;br&gt;&lt;/span&gt;" style="rounded=0;whiteSpace=wrap;html=1;fontSize=14;" vertex="1" parent="1">
          <mxGeometry x="700" y="2360" width="100" height="150" as="geometry" />
        </mxCell>
        <mxCell id="yH-KIC_llfYan9y_Q7ZD-72" value="" style="edgeStyle=orthogonalEdgeStyle;rounded=0;orthogonalLoop=1;jettySize=auto;html=1;fontSize=18;" edge="1" parent="1" source="yH-KIC_llfYan9y_Q7ZD-71" target="yH-KIC_llfYan9y_Q7ZD-59">
          <mxGeometry relative="1" as="geometry" />
        </mxCell>
        <mxCell id="yH-KIC_llfYan9y_Q7ZD-71" value="&lt;span style=&quot;font-size: 18px;&quot;&gt;IOT&lt;br&gt;Developer&lt;br&gt;&lt;/span&gt;" style="rounded=0;whiteSpace=wrap;html=1;fontSize=14;" vertex="1" parent="1">
          <mxGeometry x="364" y="2350" width="100" height="150" as="geometry" />
        </mxCell>
        <mxCell id="yH-KIC_llfYan9y_Q7ZD-81" value="" style="edgeStyle=orthogonalEdgeStyle;rounded=0;orthogonalLoop=1;jettySize=auto;html=1;fontSize=18;" edge="1" parent="1" source="yH-KIC_llfYan9y_Q7ZD-73" target="yH-KIC_llfYan9y_Q7ZD-75">
          <mxGeometry relative="1" as="geometry" />
        </mxCell>
        <mxCell id="yH-KIC_llfYan9y_Q7ZD-73" value="&lt;span style=&quot;font-size: 18px;&quot;&gt;OSS&lt;br&gt;adm-bucket&lt;br&gt;&lt;/span&gt;" style="rounded=0;whiteSpace=wrap;html=1;fontSize=14;" vertex="1" parent="1">
          <mxGeometry x="500" y="1920" width="100" height="150" as="geometry" />
        </mxCell>
        <mxCell id="yH-KIC_llfYan9y_Q7ZD-80" value="" style="edgeStyle=orthogonalEdgeStyle;rounded=0;orthogonalLoop=1;jettySize=auto;html=1;fontSize=18;" edge="1" parent="1" source="yH-KIC_llfYan9y_Q7ZD-74" target="yH-KIC_llfYan9y_Q7ZD-73">
          <mxGeometry relative="1" as="geometry" />
        </mxCell>
        <mxCell id="yH-KIC_llfYan9y_Q7ZD-74" value="&lt;span style=&quot;font-size: 18px;&quot;&gt;LogStore&lt;br&gt;ADM&lt;br&gt;&lt;/span&gt;" style="rounded=0;whiteSpace=wrap;html=1;fontSize=14;" vertex="1" parent="1">
          <mxGeometry x="364" y="1920" width="100" height="150" as="geometry" />
        </mxCell>
        <mxCell id="yH-KIC_llfYan9y_Q7ZD-82" value="" style="edgeStyle=orthogonalEdgeStyle;rounded=0;orthogonalLoop=1;jettySize=auto;html=1;fontSize=18;" edge="1" parent="1" source="yH-KIC_llfYan9y_Q7ZD-75" target="yH-KIC_llfYan9y_Q7ZD-76">
          <mxGeometry relative="1" as="geometry" />
        </mxCell>
        <mxCell id="yH-KIC_llfYan9y_Q7ZD-87" style="edgeStyle=orthogonalEdgeStyle;rounded=0;orthogonalLoop=1;jettySize=auto;html=1;entryX=0.391;entryY=-0.006;entryDx=0;entryDy=0;entryPerimeter=0;fontSize=18;" edge="1" parent="1">
          <mxGeometry relative="1" as="geometry">
            <mxPoint x="695.037037037037" y="1920" as="sourcePoint" />
            <mxPoint x="259.10000000000014" y="1919.1" as="targetPoint" />
            <Array as="points">
              <mxPoint x="695" y="1900" />
              <mxPoint x="259" y="1900" />
            </Array>
          </mxGeometry>
        </mxCell>
        <mxCell id="yH-KIC_llfYan9y_Q7ZD-75" value="&lt;span style=&quot;font-size: 18px;&quot;&gt;ADMHandler&lt;br&gt;&lt;/span&gt;" style="rounded=0;whiteSpace=wrap;html=1;fontSize=14;" vertex="1" parent="1">
          <mxGeometry x="630" y="1920" width="110" height="150" as="geometry" />
        </mxCell>
        <mxCell id="yH-KIC_llfYan9y_Q7ZD-77" value="" style="edgeStyle=orthogonalEdgeStyle;rounded=0;orthogonalLoop=1;jettySize=auto;html=1;fontSize=18;" edge="1" parent="1" source="yH-KIC_llfYan9y_Q7ZD-76" target="yH-KIC_llfYan9y_Q7ZD-57">
          <mxGeometry relative="1" as="geometry" />
        </mxCell>
        <mxCell id="yH-KIC_llfYan9y_Q7ZD-76" value="&lt;span style=&quot;font-size: 18px;&quot;&gt;OSS&lt;br&gt;VDM Folder&lt;br&gt;&lt;/span&gt;" style="rounded=0;whiteSpace=wrap;html=1;fontSize=14;" vertex="1" parent="1">
          <mxGeometry x="770" y="1920" width="110" height="150" as="geometry" />
        </mxCell>
        <mxCell id="yH-KIC_llfYan9y_Q7ZD-83" value="&lt;span style=&quot;font-size: 18px;&quot;&gt;Billing&lt;br&gt;Service&lt;br&gt;&lt;/span&gt;" style="rounded=0;whiteSpace=wrap;html=1;fontSize=14;" vertex="1" parent="1">
          <mxGeometry x="870" y="2350" width="100" height="150" as="geometry" />
        </mxCell>
        <mxCell id="yH-KIC_llfYan9y_Q7ZD-85" value="&lt;span style=&quot;font-size: 18px;&quot;&gt;Ruleengine&lt;br&gt;Service&lt;br&gt;&lt;/span&gt;" style="rounded=0;whiteSpace=wrap;html=1;fontSize=14;" vertex="1" parent="1">
          <mxGeometry x="210" y="1920" width="100" height="150" as="geometry" />
        </mxCell>
        <mxCell id="yH-KIC_llfYan9y_Q7ZD-88" value="datalake" style="text;html=1;strokeColor=none;fillColor=none;align=center;verticalAlign=middle;whiteSpace=wrap;rounded=0;fontSize=18;" vertex="1" parent="1">
          <mxGeometry x="755" y="2080" width="60" height="30" as="geometry" />
        </mxCell>
        <mxCell id="yH-KIC_llfYan9y_Q7ZD-89" value="datalake" style="text;html=1;strokeColor=none;fillColor=none;align=center;verticalAlign=middle;whiteSpace=wrap;rounded=0;fontSize=18;" vertex="1" parent="1">
          <mxGeometry x="805" y="2200" width="60" height="30" as="geometry" />
        </mxCell>
      </root>
    </mxGraphModel>
  </diagram>
</mxfile>
